STARTFONT 2.1
FONT -Monotype-Book Antiqua-Bold-I-Normal--12-120-75-75-P-70-iso8859-2
SIZE 12 75 75
FONTBOUNDINGBOX 16 17 -2 -4

STARTPROPERTIES 22
FOUNDRY "Monotype"
FAMILY_NAME "Book Antiqua"
WEIGHT_NAME "Bold"
SLANT "I"
SETWIDTH_NAME "Normal"
ADD_STYLE_NAME ""
PIXEL_SIZE 12
POINT_SIZE 120
RESOLUTION_X 75
RESOLUTION_Y 75
SPACING "P"
AVERAGE_WIDTH 70
CHARSET_REGISTRY "iso8859"
CHARSET_ENCODING "2"
COPYRIGHT "Copyright (c) 1996 Monotype Typography Ltd."
CAP_HEIGHT 11
X_HEIGHT 8
WEIGHT 10
QUAD_WIDTH 8
DEFAULT_CHAR 160
FONT_DESCENT 4
FONT_ASCENT 13
ENDPROPERTIES

CHARS 191

STARTCHAR space
ENCODING 32
SWIDTH 250 0
DWIDTH 3 0
BBX 0 0 0 0
BITMAP
ENDCHAR

STARTCHAR exclam
ENCODING 33
SWIDTH 333 0
DWIDTH 4 0
BBX 4 10 0 0
BITMAP
30
30
30
60
60
60
60
00
C0
C0
ENDCHAR

STARTCHAR quotedbl
ENCODING 34
SWIDTH 500 0
DWIDTH 7 0
BBX 5 4 1 5
BITMAP
D8
D8
90
90
ENDCHAR

STARTCHAR numbersign
ENCODING 35
SWIDTH 606 0
DWIDTH 8 0
BBX 7 9 1 0
BITMAP
14
14
7E
28
28
FC
50
50
50
ENDCHAR

STARTCHAR dollar
ENCODING 36
SWIDTH 500 0
DWIDTH 7 0
BBX 6 11 1 -1
BITMAP
08
3C
64
60
60
30
38
18
98
F0
40
ENDCHAR

STARTCHAR percent
ENCODING 37
SWIDTH 889 0
DWIDTH 12 0
BBX 10 9 1 0
BITMAP
2100
7100
B200
A400
4480
09C0
12C0
1280
2100
ENDCHAR

STARTCHAR ampersand
ENCODING 38
SWIDTH 833 0
DWIDTH 11 0
BBX 10 9 1 0
BITMAP
1C00
3200
2040
3840
6380
C500
C100
6200
3C00
ENDCHAR

STARTCHAR quoteright
ENCODING 39
SWIDTH 278 0
DWIDTH 4 0
BBX 3 4 1 6
BITMAP
60
60
40
80
ENDCHAR

STARTCHAR parenleft
ENCODING 40
SWIDTH 333 0
DWIDTH 4 0
BBX 5 13 0 -3
BITMAP
08
30
60
60
60
C0
C0
C0
C0
C0
C0
40
20
ENDCHAR

STARTCHAR parenright
ENCODING 41
SWIDTH 333 0
DWIDTH 4 0
BBX 5 13 0 -3
BITMAP
20
10
18
18
18
18
18
18
30
30
30
60
80
ENDCHAR

STARTCHAR asterisk
ENCODING 42
SWIDTH 444 0
DWIDTH 6 0
BBX 5 6 1 4
BITMAP
20
A8
70
70
A8
20
ENDCHAR

STARTCHAR plus
ENCODING 43
SWIDTH 606 0
DWIDTH 8 0
BBX 7 7 1 1
BITMAP
10
10
10
FE
10
10
10
ENDCHAR

STARTCHAR comma
ENCODING 44
SWIDTH 250 0
DWIDTH 3 0
BBX 3 4 0 -2
BITMAP
60
60
40
80
ENDCHAR

STARTCHAR minus
ENCODING 45
SWIDTH 606 0
DWIDTH 8 0
BBX 6 1 1 4
BITMAP
FC
ENDCHAR

STARTCHAR period
ENCODING 46
SWIDTH 250 0
DWIDTH 3 0
BBX 2 2 1 0
BITMAP
C0
C0
ENDCHAR

STARTCHAR slash
ENCODING 47
SWIDTH 315 0
DWIDTH 4 0
BBX 8 13 -2 -3
BITMAP
01
03
02
06
0C
08
18
30
20
60
40
C0
80
ENDCHAR

STARTCHAR zero
ENCODING 48
SWIDTH 500 0
DWIDTH 7 0
BBX 6 9 1 0
BITMAP
18
2C
4C
4C
CC
C8
C8
D0
60
ENDCHAR

STARTCHAR one
ENCODING 49
SWIDTH 500 0
DWIDTH 7 0
BBX 6 9 1 0
BITMAP
0C
1C
78
18
18
30
30
30
FC
ENDCHAR

STARTCHAR two
ENCODING 50
SWIDTH 500 0
DWIDTH 7 0
BBX 6 9 1 0
BITMAP
38
5C
4C
0C
18
10
20
7C
F8
ENDCHAR

STARTCHAR three
ENCODING 51
SWIDTH 500 0
DWIDTH 7 0
BBX 7 9 0 0
BITMAP
1C
26
26
0C
38
0C
8C
98
70
ENDCHAR

STARTCHAR four
ENCODING 52
SWIDTH 500 0
DWIDTH 7 0
BBX 6 9 1 0
BITMAP
04
0C
1C
2C
58
98
FC
30
78
ENDCHAR

STARTCHAR five
ENCODING 53
SWIDTH 500 0
DWIDTH 7 0
BBX 7 9 0 0
BITMAP
3E
3C
20
78
4C
0C
8C
88
70
ENDCHAR

STARTCHAR six
ENCODING 54
SWIDTH 500 0
DWIDTH 7 0
BBX 6 9 1 0
BITMAP
1C
20
60
78
CC
CC
CC
C8
70
ENDCHAR

STARTCHAR seven
ENCODING 55
SWIDTH 500 0
DWIDTH 7 0
BBX 6 9 1 0
BITMAP
7C
FC
08
18
10
30
20
60
60
ENDCHAR

STARTCHAR eight
ENCODING 56
SWIDTH 500 0
DWIDTH 7 0
BBX 7 9 0 0
BITMAP
1C
26
66
66
3C
4C
CC
CC
78
ENDCHAR

STARTCHAR nine
ENCODING 57
SWIDTH 500 0
DWIDTH 7 0
BBX 6 9 1 0
BITMAP
38
4C
CC
CC
CC
78
18
10
E0
ENDCHAR

STARTCHAR colon
ENCODING 58
SWIDTH 250 0
DWIDTH 3 0
BBX 3 6 0 0
BITMAP
60
60
00
00
C0
C0
ENDCHAR

STARTCHAR semicolon
ENCODING 59
SWIDTH 250 0
DWIDTH 3 0
BBX 4 8 -1 -2
BITMAP
30
30
00
00
60
60
40
80
ENDCHAR

STARTCHAR less
ENCODING 60
SWIDTH 606 0
DWIDTH 8 0
BBX 7 7 1 1
BITMAP
02
0C
38
E0
38
0C
02
ENDCHAR

STARTCHAR equal
ENCODING 61
SWIDTH 606 0
DWIDTH 8 0
BBX 6 3 1 3
BITMAP
FC
00
FC
ENDCHAR

STARTCHAR greater
ENCODING 62
SWIDTH 606 0
DWIDTH 8 0
BBX 7 7 1 1
BITMAP
80
60
38
0E
38
60
80
ENDCHAR

STARTCHAR question
ENCODING 63
SWIDTH 444 0
DWIDTH 6 0
BBX 5 10 1 0
BITMAP
70
D8
98
18
30
60
40
00
C0
C0
ENDCHAR

STARTCHAR at
ENCODING 64
SWIDTH 833 0
DWIDTH 11 0
BBX 9 11 1 -2
BITMAP
1F00
2080
4E80
9A80
9280
A480
BD00
B680
8080
4100
3E00
ENDCHAR

STARTCHAR A
ENCODING 65
SWIDTH 722 0
DWIDTH 9 0
BBX 9 9 -1 0
BITMAP
0100
0300
0700
0B00
0B00
1F00
2300
4300
E780
ENDCHAR

STARTCHAR B
ENCODING 66
SWIDTH 667 0
DWIDTH 9 0
BBX 9 9 0 0
BITMAP
3F00
1980
1980
3100
3E00
3300
6300
6300
FE00
ENDCHAR

STARTCHAR C
ENCODING 67
SWIDTH 685 0
DWIDTH 9 0
BBX 8 9 1 0
BITMAP
1F
21
61
C0
C0
C0
C0
62
3C
ENDCHAR

STARTCHAR D
ENCODING 68
SWIDTH 778 0
DWIDTH 10 0
BBX 10 9 0 0
BITMAP
3F00
1980
18C0
30C0
30C0
30C0
6180
6300
FC00
ENDCHAR

STARTCHAR E
ENCODING 69
SWIDTH 611 0
DWIDTH 8 0
BBX 9 9 0 0
BITMAP
3F80
1880
1800
3000
3E00
3000
6000
6200
FE00
ENDCHAR

STARTCHAR F
ENCODING 70
SWIDTH 556 0
DWIDTH 7 0
BBX 8 9 0 0
BITMAP
3F
19
18
30
3C
30
60
60
F0
ENDCHAR

STARTCHAR G
ENCODING 71
SWIDTH 778 0
DWIDTH 10 0
BBX 9 9 1 0
BITMAP
1F80
2080
6080
C000
C000
C780
C300
6300
3E00
ENDCHAR

STARTCHAR H
ENCODING 72
SWIDTH 778 0
DWIDTH 10 0
BBX 11 9 0 0
BITMAP
3DE0
18C0
18C0
3180
3F80
3180
6300
6300
F780
ENDCHAR

STARTCHAR I
ENCODING 73
SWIDTH 389 0
DWIDTH 5 0
BBX 6 9 0 0
BITMAP
3C
18
18
30
30
30
60
60
F0
ENDCHAR

STARTCHAR J
ENCODING 74
SWIDTH 389 0
DWIDTH 5 0
BBX 7 12 -1 -3
BITMAP
1E
0C
0C
18
18
18
18
30
30
30
60
C0
ENDCHAR

STARTCHAR K
ENCODING 75
SWIDTH 722 0
DWIDTH 9 0
BBX 9 9 0 0
BITMAP
3D80
1900
1A00
3400
3800
3C00
6600
6300
F780
ENDCHAR

STARTCHAR L
ENCODING 76
SWIDTH 611 0
DWIDTH 7 0
BBX 7 9 0 0
BITMAP
3C
18
18
30
30
30
60
62
FE
ENDCHAR

STARTCHAR M
ENCODING 77
SWIDTH 944 0
DWIDTH 12 0
BBX 12 9 0 0
BITMAP
3030
1060
38E0
38E0
2D60
6EC0
4CC0
4CC0
E9E0
ENDCHAR

STARTCHAR N
ENCODING 78
SWIDTH 778 0
DWIDTH 10 0
BBX 10 9 0 0
BITMAP
31C0
1880
3880
3D80
2D00
6F00
4700
4200
E200
ENDCHAR

STARTCHAR O
ENCODING 79
SWIDTH 833 0
DWIDTH 11 0
BBX 10 9 1 0
BITMAP
0F00
3080
60C0
C0C0
C0C0
C0C0
C180
4300
3C00
ENDCHAR

STARTCHAR P
ENCODING 80
SWIDTH 667 0
DWIDTH 9 0
BBX 9 9 0 0
BITMAP
3F00
1980
1980
3100
3600
3000
6000
6000
F000
ENDCHAR

STARTCHAR Q
ENCODING 81
SWIDTH 833 0
DWIDTH 11 0
BBX 10 12 1 -3
BITMAP
0F00
3080
60C0
C0C0
C0C0
C0C0
C180
4300
3C00
3800
4E40
0380
ENDCHAR

STARTCHAR R
ENCODING 82
SWIDTH 722 0
DWIDTH 9 0
BBX 9 9 0 0
BITMAP
3F00
1980
1980
3100
3600
3600
6300
6300
F380
ENDCHAR

STARTCHAR S
ENCODING 83
SWIDTH 556 0
DWIDTH 7 0
BBX 7 9 0 0
BITMAP
3E
62
60
70
38
1C
0C
8C
F8
ENDCHAR

STARTCHAR T
ENCODING 84
SWIDTH 611 0
DWIDTH 8 0
BBX 8 9 1 0
BITMAP
FF
99
18
30
30
30
60
60
F0
ENDCHAR

STARTCHAR U
ENCODING 85
SWIDTH 778 0
DWIDTH 10 0
BBX 10 9 1 0
BITMAP
73C0
3180
3180
6300
6300
6300
C600
CE00
7700
ENDCHAR

STARTCHAR V
ENCODING 86
SWIDTH 667 0
DWIDTH 9 0
BBX 9 9 1 0
BITMAP
F380
6100
6200
6400
6400
6800
7000
7000
6000
ENDCHAR

STARTCHAR W
ENCODING 87
SWIDTH 1000 0
DWIDTH 13 0
BBX 13 9 1 0
BITMAP
F338
6310
6320
6720
6740
6B40
7380
7380
6300
ENDCHAR

STARTCHAR X
ENCODING 88
SWIDTH 722 0
DWIDTH 9 0
BBX 9 9 0 0
BITMAP
7B80
3100
1A00
1C00
0C00
1E00
2600
4300
E780
ENDCHAR

STARTCHAR Y
ENCODING 89
SWIDTH 611 0
DWIDTH 8 0
BBX 9 9 0 0
BITMAP
E180
6100
3200
3400
1800
1800
3000
3000
7800
ENDCHAR

STARTCHAR Z
ENCODING 90
SWIDTH 667 0
DWIDTH 9 0
BBX 9 9 0 0
BITMAP
3F80
2300
0600
0C00
0C00
1800
3000
6200
FE00
ENDCHAR

STARTCHAR bracketleft
ENCODING 91
SWIDTH 333 0
DWIDTH 4 0
BBX 5 13 0 -3
BITMAP
38
30
30
30
60
60
60
60
60
C0
C0
C0
E0
ENDCHAR

STARTCHAR backslash
ENCODING 92
SWIDTH 606 0
DWIDTH 8 0
BBX 9 13 0 -3
BITMAP
8000
C000
4000
6000
3000
1000
1800
0C00
0400
0600
0300
0100
0180
ENDCHAR

STARTCHAR bracketright
ENCODING 93
SWIDTH 333 0
DWIDTH 4 0
BBX 5 13 0 -3
BITMAP
38
18
18
18
30
30
30
30
30
60
60
60
E0
ENDCHAR

STARTCHAR asciicircum
ENCODING 94
SWIDTH 606 0
DWIDTH 8 0
BBX 6 5 1 4
BITMAP
30
30
78
48
84
ENDCHAR

STARTCHAR underscore
ENCODING 95
SWIDTH 500 0
DWIDTH 7 0
BBX 7 1 0 -2
BITMAP
FE
ENDCHAR

STARTCHAR quoteleft
ENCODING 96
SWIDTH 278 0
DWIDTH 4 0
BBX 3 4 1 6
BITMAP
20
40
C0
C0
ENDCHAR

STARTCHAR a
ENCODING 97
SWIDTH 556 0
DWIDTH 7 0
BBX 7 6 0 0
BITMAP
1A
2C
4C
C8
DA
6C
ENDCHAR

STARTCHAR b
ENCODING 98
SWIDTH 537 0
DWIDTH 7 0
BBX 7 10 0 0
BITMAP
10
70
30
30
6C
76
66
C6
CC
F0
ENDCHAR

STARTCHAR c
ENCODING 99
SWIDTH 444 0
DWIDTH 6 0
BBX 6 6 1 0
BITMAP
3C
64
C0
C0
C8
70
ENDCHAR

STARTCHAR d
ENCODING 100
SWIDTH 556 0
DWIDTH 7 0
BBX 7 10 0 0
BITMAP
02
0E
06
06
3C
6C
CC
D8
DA
6C
ENDCHAR

STARTCHAR e
ENCODING 101
SWIDTH 444 0
DWIDTH 6 0
BBX 5 6 1 0
BITMAP
38
58
F0
C0
D0
60
ENDCHAR

STARTCHAR f
ENCODING 102
SWIDTH 333 0
DWIDTH 4 0
BBX 8 13 -2 -3
BITMAP
03
05
0C
0C
1E
0C
18
18
18
30
30
B0
E0
ENDCHAR

STARTCHAR g
ENCODING 103
SWIDTH 500 0
DWIDTH 7 0
BBX 7 9 0 -3
BITMAP
3A
6C
64
6C
38
30
68
CC
78
ENDCHAR

STARTCHAR h
ENCODING 104
SWIDTH 556 0
DWIDTH 7 0
BBX 8 10 0 0
BITMAP
10
70
30
30
6C
76
66
CC
CD
C6
ENDCHAR

STARTCHAR i
ENCODING 105
SWIDTH 333 0
DWIDTH 4 0
BBX 5 9 0 0
BITMAP
18
18
00
30
F0
60
60
D0
E0
ENDCHAR

STARTCHAR j
ENCODING 106
SWIDTH 333 0
DWIDTH 4 0
BBX 7 12 -2 -3
BITMAP
06
06
00
04
1C
0C
18
18
18
30
B0
E0
ENDCHAR

STARTCHAR k
ENCODING 107
SWIDTH 556 0
DWIDTH 7 0
BBX 7 10 0 0
BITMAP
10
70
30
30
66
68
70
F8
DA
CC
ENDCHAR

STARTCHAR l
ENCODING 108
SWIDTH 333 0
DWIDTH 4 0
BBX 4 10 0 0
BITMAP
10
70
30
30
60
60
60
C0
D0
E0
ENDCHAR

STARTCHAR m
ENCODING 109
SWIDTH 833 0
DWIDTH 11 0
BBX 12 6 0 0
BITMAP
2CC0
F760
6660
CCC0
CCD0
CCE0
ENDCHAR

STARTCHAR n
ENCODING 110
SWIDTH 556 0
DWIDTH 7 0
BBX 8 6 0 0
BITMAP
2C
F6
66
CC
CD
CE
ENDCHAR

STARTCHAR o
ENCODING 111
SWIDTH 556 0
DWIDTH 7 0
BBX 6 6 1 0
BITMAP
38
4C
CC
CC
C8
70
ENDCHAR

STARTCHAR p
ENCODING 112
SWIDTH 556 0
DWIDTH 7 0
BBX 8 9 -1 -3
BITMAP
16
7B
33
33
66
7C
60
C0
80
ENDCHAR

STARTCHAR q
ENCODING 113
SWIDTH 537 0
DWIDTH 7 0
BBX 7 9 0 -3
BITMAP
3A
66
C6
CC
CC
78
18
18
10
ENDCHAR

STARTCHAR r
ENCODING 114
SWIDTH 389 0
DWIDTH 5 0
BBX 6 6 0 0
BITMAP
24
EC
70
60
C0
C0
ENDCHAR

STARTCHAR s
ENCODING 115
SWIDTH 444 0
DWIDTH 6 0
BBX 6 6 0 0
BITMAP
3C
64
70
38
98
F0
ENDCHAR

STARTCHAR t
ENCODING 116
SWIDTH 389 0
DWIDTH 5 0
BBX 5 9 1 0
BITMAP
20
20
60
F8
60
C0
C0
D0
60
ENDCHAR

STARTCHAR u
ENCODING 117
SWIDTH 556 0
DWIDTH 7 0
BBX 8 6 0 0
BITMAP
26
E6
66
CC
DD
6E
ENDCHAR

STARTCHAR v
ENCODING 118
SWIDTH 556 0
DWIDTH 7 0
BBX 6 6 1 0
BITMAP
E8
6C
64
C4
C8
70
ENDCHAR

STARTCHAR w
ENCODING 119
SWIDTH 833 0
DWIDTH 11 0
BBX 11 6 0 0
BITMAP
E6C0
6660
6660
CC60
CCC0
7780
ENDCHAR

STARTCHAR x
ENCODING 120
SWIDTH 500 0
DWIDTH 7 0
BBX 8 6 0 0
BITMAP
37
5C
18
18
3A
EC
ENDCHAR

STARTCHAR y
ENCODING 121
SWIDTH 556 0
DWIDTH 7 0
BBX 8 9 0 -3
BITMAP
13
73
36
66
6C
3C
0C
D8
70
ENDCHAR

STARTCHAR z
ENCODING 122
SWIDTH 500 0
DWIDTH 7 0
BBX 7 6 0 0
BITMAP
3A
4C
18
30
64
B8
ENDCHAR

STARTCHAR braceleft
ENCODING 123
SWIDTH 333 0
DWIDTH 4 0
BBX 6 13 0 -3
BITMAP
0C
18
18
30
30
60
C0
20
60
60
60
60
30
ENDCHAR

STARTCHAR bar
ENCODING 124
SWIDTH 606 0
DWIDTH 8 0
BBX 2 13 3 -3
BITMAP
C0
C0
C0
C0
C0
C0
C0
C0
C0
C0
C0
C0
C0
ENDCHAR

STARTCHAR braceright
ENCODING 125
SWIDTH 333 0
DWIDTH 4 0
BBX 6 13 0 -3
BITMAP
30
18
18
18
18
10
0C
18
30
30
60
60
C0
ENDCHAR

STARTCHAR asciitilde
ENCODING 126
SWIDTH 606 0
DWIDTH 8 0
BBX 6 2 1 4
BITMAP
74
B8
ENDCHAR

STARTCHAR space
ENCODING 160
SWIDTH 250 0
DWIDTH 4 0
BBX 0 0 0 0
BITMAP
ENDCHAR

STARTCHAR Aogonek
ENCODING 161
SWIDTH 722 0
DWIDTH 9 0
BBX 9 11 -1 -2
BITMAP
0100
0300
0700
0B00
0B00
1F00
2300
4300
E780
0200
0180
ENDCHAR

STARTCHAR breve
ENCODING 162
SWIDTH 333 0
DWIDTH 4 0
BBX 5 2 0 7
BITMAP
88
70
ENDCHAR

STARTCHAR Lslash
ENCODING 163
SWIDTH 611 0
DWIDTH 7 0
BBX 7 9 0 0
BITMAP
3C
18
18
34
38
30
E0
62
FE
ENDCHAR

STARTCHAR currency
ENCODING 164
SWIDTH 606 0
DWIDTH 8 0
BBX 6 6 1 2
BITMAP
B4
48
CC
CC
48
B4
ENDCHAR

STARTCHAR Lcaron
ENCODING 165
SWIDTH 611 0
DWIDTH 7 0
BBX 9 9 0 0
BITMAP
3D80
1880
1900
3000
3000
3000
6000
6200
FE00
ENDCHAR

STARTCHAR Sacute
ENCODING 166
SWIDTH 556 0
DWIDTH 7 0
BBX 7 12 0 0
BITMAP
0C
10
00
3E
62
60
70
38
1C
0C
8C
F8
ENDCHAR

STARTCHAR section
ENCODING 167
SWIDTH 556 0
DWIDTH 7 0
BBX 6 13 1 -3
BITMAP
3C
64
60
60
B0
98
CC
64
34
18
18
98
F0
ENDCHAR

STARTCHAR dieresis
ENCODING 168
SWIDTH 333 0
DWIDTH 4 0
BBX 5 1 0 7
BITMAP
D8
ENDCHAR

STARTCHAR Scaron
ENCODING 169
SWIDTH 556 0
DWIDTH 7 0
BBX 7 12 0 0
BITMAP
12
0C
00
3E
62
60
70
38
1C
0C
8C
F8
ENDCHAR

STARTCHAR Scommaaccent
ENCODING 170
SWIDTH 556 0
DWIDTH 7 0
BBX 7 13 0 -4
BITMAP
3E
62
60
70
38
1C
0C
8C
F8
00
30
10
60
ENDCHAR

STARTCHAR Tcaron
ENCODING 171
SWIDTH 611 0
DWIDTH 8 0
BBX 8 12 1 0
BITMAP
12
0C
00
FF
99
18
30
30
30
60
60
F0
ENDCHAR

STARTCHAR Zacute
ENCODING 172
SWIDTH 667 0
DWIDTH 9 0
BBX 9 12 0 0
BITMAP
0300
0400
0000
3F80
2300
0600
0C00
0C00
1800
3000
6200
FE00
ENDCHAR

STARTCHAR hyphen
ENCODING 173
SWIDTH 389 0
DWIDTH 5 0
BBX 5 1 0 3
BITMAP
F8
ENDCHAR

STARTCHAR Zcaron
ENCODING 174
SWIDTH 667 0
DWIDTH 9 0
BBX 9 12 0 0
BITMAP
0900
0600
0000
3F80
2300
0600
0C00
0C00
1800
3000
6200
FE00
ENDCHAR

STARTCHAR Zdotaccent
ENCODING 175
SWIDTH 667 0
DWIDTH 9 0
BBX 9 11 0 0
BITMAP
0600
0000
3F80
2300
0600
0C00
0C00
1800
3000
6200
FE00
ENDCHAR

STARTCHAR degree
ENCODING 176
SWIDTH 396 0
DWIDTH 5 0
BBX 4 4 1 5
BITMAP
60
B0
B0
60
ENDCHAR

STARTCHAR aogonek
ENCODING 177
SWIDTH 556 0
DWIDTH 7 0
BBX 7 8 0 -2
BITMAP
1A
2C
4C
C8
DA
6C
08
06
ENDCHAR

STARTCHAR ogonek
ENCODING 178
SWIDTH 333 0
DWIDTH 4 0
BBX 3 2 1 -2
BITMAP
80
60
ENDCHAR

STARTCHAR lslash
ENCODING 179
SWIDTH 333 0
DWIDTH 4 0
BBX 5 10 0 0
BITMAP
10
70
38
30
60
E0
60
C0
D0
E0
ENDCHAR

STARTCHAR acute
ENCODING 180
SWIDTH 333 0
DWIDTH 4 0
BBX 3 2 2 7
BITMAP
60
80
ENDCHAR

STARTCHAR lcaron
ENCODING 181
SWIDTH 434 0
DWIDTH 4 0
BBX 7 10 0 0
BITMAP
16
72
34
30
60
60
60
C0
D0
E0
ENDCHAR

STARTCHAR sacute
ENCODING 182
SWIDTH 444 0
DWIDTH 6 0
BBX 6 9 0 0
BITMAP
0C
10
00
3C
64
70
38
98
F0
ENDCHAR

STARTCHAR caron
ENCODING 183
SWIDTH 333 0
DWIDTH 4 0
BBX 4 2 1 7
BITMAP
90
60
ENDCHAR

STARTCHAR commaaccent
ENCODING 184
SWIDTH 333 0
DWIDTH 4 0
BBX 3 3 0 -4
BITMAP
60
20
C0
ENDCHAR

STARTCHAR scaron
ENCODING 185
SWIDTH 444 0
DWIDTH 6 0
BBX 6 9 0 0
BITMAP
24
18
00
3C
64
70
38
98
F0
ENDCHAR

STARTCHAR scommaaccent
ENCODING 186
SWIDTH 444 0
DWIDTH 6 0
BBX 6 10 0 -4
BITMAP
3C
64
70
38
98
F0
00
60
20
C0
ENDCHAR

STARTCHAR tcaron
ENCODING 187
SWIDTH 439 0
DWIDTH 5 0
BBX 6 10 1 0
BITMAP
0C
24
28
60
F8
60
C0
C0
D0
60
ENDCHAR

STARTCHAR zacute
ENCODING 188
SWIDTH 500 0
DWIDTH 7 0
BBX 7 9 0 0
BITMAP
0C
10
00
3A
4C
18
30
64
B8
ENDCHAR

STARTCHAR hungarumlaut
ENCODING 189
SWIDTH 333 0
DWIDTH 4 0
BBX 6 2 -1 7
BITMAP
6C
90
ENDCHAR

STARTCHAR zcaron
ENCODING 190
SWIDTH 500 0
DWIDTH 7 0
BBX 7 9 0 0
BITMAP
12
0C
00
3A
4C
18
30
64
B8
ENDCHAR

STARTCHAR zdotaccent
ENCODING 191
SWIDTH 500 0
DWIDTH 7 0
BBX 7 8 0 0
BITMAP
0C
00
3A
4C
18
30
64
B8
ENDCHAR

STARTCHAR Racute
ENCODING 192
SWIDTH 722 0
DWIDTH 9 0
BBX 9 12 0 0
BITMAP
0300
0400
0000
3F00
1980
1980
3100
3600
3600
6300
6300
F380
ENDCHAR

STARTCHAR Aacute
ENCODING 193
SWIDTH 722 0
DWIDTH 9 0
BBX 10 12 -1 0
BITMAP
00C0
0100
0000
0100
0300
0700
0B00
0B00
1F00
2300
4300
E780
ENDCHAR

STARTCHAR Acircumflex
ENCODING 194
SWIDTH 722 0
DWIDTH 9 0
BBX 10 12 -1 0
BITMAP
0180
0240
0000
0100
0300
0700
0B00
0B00
1F00
2300
4300
E780
ENDCHAR

STARTCHAR Abreve
ENCODING 195
SWIDTH 722 0
DWIDTH 9 0
BBX 10 12 -1 0
BITMAP
0440
0380
0000
0100
0300
0700
0B00
0B00
1F00
2300
4300
E780
ENDCHAR

STARTCHAR Adieresis
ENCODING 196
SWIDTH 722 0
DWIDTH 9 0
BBX 10 11 -1 0
BITMAP
06C0
0000
0100
0300
0700
0B00
0B00
1F00
2300
4300
E780
ENDCHAR

STARTCHAR Lacute
ENCODING 197
SWIDTH 611 0
DWIDTH 7 0
BBX 7 12 0 0
BITMAP
06
08
00
3C
18
18
30
30
30
60
62
FE
ENDCHAR

STARTCHAR Cacute
ENCODING 198
SWIDTH 685 0
DWIDTH 9 0
BBX 8 12 1 0
BITMAP
06
08
00
1F
21
61
C0
C0
C0
C0
62
3C
ENDCHAR

STARTCHAR Ccedilla
ENCODING 199
SWIDTH 685 0
DWIDTH 9 0
BBX 8 12 1 -3
BITMAP
1F
21
61
C0
C0
C0
C0
62
3C
10
08
30
ENDCHAR

STARTCHAR Ccaron
ENCODING 200
SWIDTH 685 0
DWIDTH 9 0
BBX 8 12 1 0
BITMAP
12
0C
00
1F
21
61
C0
C0
C0
C0
62
3C
ENDCHAR

STARTCHAR Eacute
ENCODING 201
SWIDTH 611 0
DWIDTH 8 0
BBX 9 12 0 0
BITMAP
0300
0400
0000
3F80
1880
1800
3000
3E00
3000
6000
6200
FE00
ENDCHAR

STARTCHAR Eogonek
ENCODING 202
SWIDTH 611 0
DWIDTH 8 0
BBX 9 11 0 -2
BITMAP
3F80
1880
1800
3000
3E00
3000
6000
6200
FE00
0800
0600
ENDCHAR

STARTCHAR Edieresis
ENCODING 203
SWIDTH 611 0
DWIDTH 8 0
BBX 9 11 0 0
BITMAP
0D80
0000
3F80
1880
1800
3000
3E00
3000
6000
6200
FE00
ENDCHAR

STARTCHAR Ecaron
ENCODING 204
SWIDTH 611 0
DWIDTH 8 0
BBX 9 12 0 0
BITMAP
0900
0600
0000
3F80
1880
1800
3000
3E00
3000
6000
6200
FE00
ENDCHAR

STARTCHAR Iacute
ENCODING 205
SWIDTH 389 0
DWIDTH 5 0
BBX 7 12 0 0
BITMAP
06
08
00
3C
18
18
30
30
30
60
60
F0
ENDCHAR

STARTCHAR Icircumflex
ENCODING 206
SWIDTH 389 0
DWIDTH 5 0
BBX 7 12 0 0
BITMAP
0C
12
00
3C
18
18
30
30
30
60
60
F0
ENDCHAR

STARTCHAR Dcaron
ENCODING 207
SWIDTH 778 0
DWIDTH 10 0
BBX 10 12 0 0
BITMAP
0900
0600
0000
3F00
1980
18C0
30C0
30C0
30C0
6180
6300
FC00
ENDCHAR

STARTCHAR Dcroat
ENCODING 208
SWIDTH 778 0
DWIDTH 10 0
BBX 10 9 0 0
BITMAP
3F00
1980
18C0
30C0
7CC0
30C0
6180
6300
FC00
ENDCHAR

STARTCHAR Nacute
ENCODING 209
SWIDTH 778 0
DWIDTH 10 0
BBX 10 12 0 0
BITMAP
0300
0400
0000
31C0
1880
3880
3D80
2D00
6F00
4700
4200
E200
ENDCHAR

STARTCHAR Ncaron
ENCODING 210
SWIDTH 778 0
DWIDTH 10 0
BBX 10 12 0 0
BITMAP
0900
0600
0000
31C0
1880
3880
3D80
2D00
6F00
4700
4200
E200
ENDCHAR

STARTCHAR Oacute
ENCODING 211
SWIDTH 833 0
DWIDTH 11 0
BBX 10 12 1 0
BITMAP
0300
0400
0000
0F00
3080
60C0
C0C0
C0C0
C0C0
C180
4300
3C00
ENDCHAR

STARTCHAR Ocircumflex
ENCODING 212
SWIDTH 833 0
DWIDTH 11 0
BBX 10 12 1 0
BITMAP
0600
0900
0000
0F00
3080
60C0
C0C0
C0C0
C0C0
C180
4300
3C00
ENDCHAR

STARTCHAR Ohungarumlaut
ENCODING 213
SWIDTH 833 0
DWIDTH 11 0
BBX 10 12 1 0
BITMAP
0D80
1200
0000
0F00
3080
60C0
C0C0
C0C0
C0C0
C180
4300
3C00
ENDCHAR

STARTCHAR Odieresis
ENCODING 214
SWIDTH 833 0
DWIDTH 11 0
BBX 10 11 1 0
BITMAP
0D80
0000
0F00
3080
60C0
C0C0
C0C0
C0C0
C180
4300
3C00
ENDCHAR

STARTCHAR multiply
ENCODING 215
SWIDTH 606 0
DWIDTH 8 0
BBX 6 5 1 2
BITMAP
CC
78
30
78
CC
ENDCHAR

STARTCHAR Rcaron
ENCODING 216
SWIDTH 722 0
DWIDTH 9 0
BBX 9 12 0 0
BITMAP
0900
0600
0000
3F00
1980
1980
3100
3600
3600
6300
6300
F380
ENDCHAR

STARTCHAR Uring
ENCODING 217
SWIDTH 778 0
DWIDTH 10 0
BBX 10 13 1 0
BITMAP
0400
0A00
0400
0000
73C0
3180
3180
6300
6300
6300
C600
CE00
7700
ENDCHAR

STARTCHAR Uacute
ENCODING 218
SWIDTH 778 0
DWIDTH 10 0
BBX 10 12 1 0
BITMAP
0600
0800
0000
73C0
3180
3180
6300
6300
6300
C600
CE00
7700
ENDCHAR

STARTCHAR Uhungarumlaut
ENCODING 219
SWIDTH 778 0
DWIDTH 10 0
BBX 10 12 1 0
BITMAP
0D80
1200
0000
73C0
3180
3180
6300
6300
6300
C600
CE00
7700
ENDCHAR

STARTCHAR Udieresis
ENCODING 220
SWIDTH 778 0
DWIDTH 10 0
BBX 10 11 1 0
BITMAP
1B00
0000
73C0
3180
3180
6300
6300
6300
C600
CE00
7700
ENDCHAR

STARTCHAR Yacute
ENCODING 221
SWIDTH 611 0
DWIDTH 8 0
BBX 9 12 0 0
BITMAP
0600
0800
0000
E180
6100
3200
3400
1800
1800
3000
3000
7800
ENDCHAR

STARTCHAR Tcommaaccent
ENCODING 222
SWIDTH 611 0
DWIDTH 8 0
BBX 8 13 1 -4
BITMAP
FF
99
18
30
30
30
60
60
F0
00
60
20
C0
ENDCHAR

STARTCHAR germandbls
ENCODING 223
SWIDTH 556 0
DWIDTH 7 0
BBX 9 13 -2 -3
BITMAP
0700
0D80
0980
1980
3B00
1A00
1B00
3300
3300
3600
2000
4000
C000
ENDCHAR

STARTCHAR racute
ENCODING 224
SWIDTH 389 0
DWIDTH 5 0
BBX 6 9 0 0
BITMAP
0C
10
00
24
EC
70
60
C0
C0
ENDCHAR

STARTCHAR aacute
ENCODING 225
SWIDTH 556 0
DWIDTH 7 0
BBX 7 9 0 0
BITMAP
06
08
00
1A
2C
4C
C8
DA
6C
ENDCHAR

STARTCHAR acircumflex
ENCODING 226
SWIDTH 556 0
DWIDTH 7 0
BBX 7 9 0 0
BITMAP
0C
12
00
1A
2C
4C
C8
DA
6C
ENDCHAR

STARTCHAR abreve
ENCODING 227
SWIDTH 556 0
DWIDTH 7 0
BBX 7 9 0 0
BITMAP
22
1C
00
1A
2C
4C
C8
DA
6C
ENDCHAR

STARTCHAR adieresis
ENCODING 228
SWIDTH 556 0
DWIDTH 7 0
BBX 8 8 0 0
BITMAP
1B
00
1A
2C
4C
C8
DA
6C
ENDCHAR

STARTCHAR lacute
ENCODING 229
SWIDTH 333 0
DWIDTH 4 0
BBX 5 13 0 0
BITMAP
18
20
00
10
70
30
30
60
60
60
C0
D0
E0
ENDCHAR

STARTCHAR cacute
ENCODING 230
SWIDTH 444 0
DWIDTH 6 0
BBX 6 9 1 0
BITMAP
0C
10
00
3C
64
C0
C0
C8
70
ENDCHAR

STARTCHAR ccedilla
ENCODING 231
SWIDTH 444 0
DWIDTH 6 0
BBX 6 9 1 -3
BITMAP
3C
64
C0
C0
C8
70
20
10
60
ENDCHAR

STARTCHAR ccaron
ENCODING 232
SWIDTH 444 0
DWIDTH 6 0
BBX 6 9 1 0
BITMAP
24
18
00
3C
64
C0
C0
C8
70
ENDCHAR

STARTCHAR eacute
ENCODING 233
SWIDTH 444 0
DWIDTH 6 0
BBX 6 9 1 0
BITMAP
0C
10
00
38
58
F0
C0
D0
60
ENDCHAR

STARTCHAR eogonek
ENCODING 234
SWIDTH 444 0
DWIDTH 6 0
BBX 5 8 1 -2
BITMAP
38
58
F0
C0
D0
60
40
30
ENDCHAR

STARTCHAR edieresis
ENCODING 235
SWIDTH 444 0
DWIDTH 6 0
BBX 6 8 1 0
BITMAP
6C
00
38
58
F0
C0
D0
60
ENDCHAR

STARTCHAR ecaron
ENCODING 236
SWIDTH 444 0
DWIDTH 6 0
BBX 6 9 1 0
BITMAP
24
18
00
38
58
F0
C0
D0
60
ENDCHAR

STARTCHAR iacute
ENCODING 237
SWIDTH 333 0
DWIDTH 4 0
BBX 5 9 0 0
BITMAP
18
20
00
30
F0
60
60
D0
E0
ENDCHAR

STARTCHAR icircumflex
ENCODING 238
SWIDTH 333 0
DWIDTH 4 0
BBX 5 9 0 0
BITMAP
30
48
00
30
F0
60
60
D0
E0
ENDCHAR

STARTCHAR dcaron
ENCODING 239
SWIDTH 664 0
DWIDTH 7 0
BBX 10 10 0 0
BITMAP
02C0
0E40
0680
0600
3C00
6C00
CC00
D800
DA00
6C00
ENDCHAR

STARTCHAR dcroat
ENCODING 240
SWIDTH 556 0
DWIDTH 7 0
BBX 8 10 0 0
BITMAP
02
0F
06
06
3C
6C
CC
D8
DA
6C
ENDCHAR

STARTCHAR nacute
ENCODING 241
SWIDTH 556 0
DWIDTH 7 0
BBX 8 9 0 0
BITMAP
0C
10
00
2C
F6
66
CC
CD
CE
ENDCHAR

STARTCHAR ncaron
ENCODING 242
SWIDTH 556 0
DWIDTH 7 0
BBX 8 9 0 0
BITMAP
24
18
00
2C
F6
66
CC
CD
CE
ENDCHAR

STARTCHAR oacute
ENCODING 243
SWIDTH 556 0
DWIDTH 7 0
BBX 6 9 1 0
BITMAP
0C
10
00
38
4C
CC
CC
C8
70
ENDCHAR

STARTCHAR ocircumflex
ENCODING 244
SWIDTH 556 0
DWIDTH 7 0
BBX 6 9 1 0
BITMAP
18
24
00
38
4C
CC
CC
C8
70
ENDCHAR

STARTCHAR ohungarumlaut
ENCODING 245
SWIDTH 556 0
DWIDTH 7 0
BBX 7 9 1 0
BITMAP
36
48
00
38
4C
CC
CC
C8
70
ENDCHAR

STARTCHAR odieresis
ENCODING 246
SWIDTH 556 0
DWIDTH 7 0
BBX 6 8 1 0
BITMAP
6C
00
38
4C
CC
CC
C8
70
ENDCHAR

STARTCHAR divide
ENCODING 247
SWIDTH 606 0
DWIDTH 8 0
BBX 6 5 1 2
BITMAP
30
00
FC
00
30
ENDCHAR

STARTCHAR rcaron
ENCODING 248
SWIDTH 389 0
DWIDTH 5 0
BBX 6 9 0 0
BITMAP
24
18
00
24
EC
70
60
C0
C0
ENDCHAR

STARTCHAR uring
ENCODING 249
SWIDTH 556 0
DWIDTH 7 0
BBX 8 10 0 0
BITMAP
08
14
08
00
26
E6
66
CC
DD
6E
ENDCHAR

STARTCHAR uacute
ENCODING 250
SWIDTH 556 0
DWIDTH 7 0
BBX 8 9 0 0
BITMAP
0C
10
00
26
E6
66
CC
DD
6E
ENDCHAR

STARTCHAR uhungarumlaut
ENCODING 251
SWIDTH 556 0
DWIDTH 7 0
BBX 8 9 0 0
BITMAP
1B
24
00
26
E6
66
CC
DD
6E
ENDCHAR

STARTCHAR udieresis
ENCODING 252
SWIDTH 556 0
DWIDTH 7 0
BBX 8 8 0 0
BITMAP
36
00
26
E6
66
CC
DD
6E
ENDCHAR

STARTCHAR yacute
ENCODING 253
SWIDTH 556 0
DWIDTH 7 0
BBX 8 12 0 -3
BITMAP
06
08
00
13
73
36
66
6C
3C
0C
D8
70
ENDCHAR

STARTCHAR tcommaaccent
ENCODING 254
SWIDTH 389 0
DWIDTH 5 0
BBX 6 13 0 -4
BITMAP
10
10
30
7C
30
60
60
68
30
00
60
20
C0
ENDCHAR

STARTCHAR dotaccent
ENCODING 255
SWIDTH 333 0
DWIDTH 4 0
BBX 2 1 1 7
BITMAP
C0
ENDCHAR
ENDFONT
